<svg width="22" height="22" viewBox="0 0 22 22" fill="none" xmlns="http://www.w3.org/2000/svg">
<path d="M9.7002 1.65686C10.5302 1.30116 11.4698 1.30116 12.2998 1.65686L18.0332 4.11389C18.4375 4.28717 18.7 4.68478 18.7002 5.12463V10.903C18.7002 13.0344 17.6709 15.0351 15.9365 16.274L12.2783 18.8864C11.5135 19.4325 10.4865 19.4325 9.72168 18.8864L6.06348 16.274C4.32912 15.0351 3.2998 13.0344 3.2998 10.903V5.12463C3.29998 4.68478 3.56248 4.28717 3.9668 4.11389L9.7002 1.65686ZM14.9248 6.91858C14.4935 6.57375 13.8635 6.64364 13.5186 7.07483L9.81738 11.7018L8.40723 10.2926C8.01679 9.90235 7.38365 9.90243 6.99316 10.2926C6.60272 10.6831 6.60282 11.3161 6.99316 11.7067L8.79785 13.5123C9.42999 14.1441 10.4709 14.0861 11.0293 13.3883L15.0811 8.32483C15.4261 7.89357 15.3561 7.26359 14.9248 6.91858Z" fill="#FF8000"/>
</svg>
